<svg xmlns="http://www.w3.org/2000/svg" fill="none" viewBox="0 0 25 19"><g fill-rule="evenodd" clip-path="url(#a)" clip-rule="evenodd"><path fill="#E30A17" d="M0 0h25v18.75H0V0Z"/><path fill="#fff" d="M15.898 9.668c0 2.586-2.132 4.684-4.765 4.684-2.633 0-4.766-2.098-4.766-4.688s2.133-4.68 4.766-4.68 4.765 2.098 4.765 4.684Z"/><path fill="#E30A17" d="M16.133 9.668c0 2.07-1.703 3.746-3.809 3.746-2.105 0-3.812-1.68-3.812-3.75 0-2.07 1.707-3.742 3.812-3.742 2.106 0 3.813 1.676 3.813 3.746h-.004Z"/><path fill="#fff" d="m16.824 7.48-.039 1.73-1.613.438 1.594.567-.04 1.59 1.036-1.242 1.57.546-.906-1.332 1.105-1.324-1.699.469-1.008-1.445v.003Z"/></g><defs><clipPath id="a"><rect width="25" height="18.75" fill="#fff" rx="2"/></clipPath></defs></svg>