<svg xmlns="http://www.w3.org/2000/svg" fill="none" viewBox="0 0 140 118"><path fill="#7E706F" d="M10.224 99.712v2.057h-6.68v-2.057h6.68ZM4.326 94.5v12.797H1.69V94.5h2.636Zm7.779 0v12.797H9.477V94.5h2.628Zm4.807 3.287v9.51h-2.54v-9.51h2.54Zm-2.698-2.478c0-.37.13-.674.387-.914.258-.24.603-.36 1.037-.36.428 0 .77.12 1.028.36.264.24.396.545.396.914s-.132.674-.396.914c-.258.24-.6.36-1.028.36-.434 0-.78-.12-1.037-.36a1.195 1.195 0 0 1-.387-.914Zm10.406 9.914V93.797h2.55v13.5h-2.295l-.255-2.074Zm-6.011-2.567v-.184c0-.727.082-1.386.246-1.978.164-.597.404-1.11.72-1.538a3.284 3.284 0 0 1 1.17-.993c.462-.234.99-.351 1.581-.351.557 0 1.043.117 1.46.351.421.235.779.568 1.072 1.002.299.428.539.935.72 1.521.182.58.314 1.215.396 1.907v.404a10.17 10.17 0 0 1-.396 1.846 5.534 5.534 0 0 1-.72 1.494 3.17 3.17 0 0 1-1.073.984c-.421.235-.914.352-1.476.352-.592 0-1.12-.12-1.582-.36a3.372 3.372 0 0 1-1.16-1.011 4.853 4.853 0 0 1-.712-1.53 7.077 7.077 0 0 1-.246-1.916Zm2.531-.184v.184c0 .393.03.759.088 1.099.064.34.167.642.307.905.147.258.334.46.563.607.234.14.518.211.853.211.433 0 .79-.097 1.072-.29.281-.2.495-.472.641-.818.153-.345.24-.744.264-1.195v-1.151a4.143 4.143 0 0 0-.158-.994 2.165 2.165 0 0 0-.37-.764 1.628 1.628 0 0 0-.597-.492 1.847 1.847 0 0 0-.835-.176c-.328 0-.61.076-.844.228a1.675 1.675 0 0 0-.571.607c-.14.258-.246.562-.316.914a6.154 6.154 0 0 0-.097 1.125Zm12.384 5.001c-.739 0-1.4-.117-1.987-.352a4.356 4.356 0 0 1-1.494-.993 4.412 4.412 0 0 1-.931-1.468 4.94 4.94 0 0 1-.326-1.793v-.351c0-.721.103-1.38.308-1.978a4.65 4.65 0 0 1 .879-1.555c.387-.44.855-.777 1.406-1.011.551-.24 1.172-.36 1.863-.36.674 0 1.272.11 1.794.334.52.222.957.539 1.309.949.358.41.627.902.809 1.476.181.569.272 1.201.272 1.899v1.054h-7.559v-1.687h5.072v-.193c0-.352-.065-.665-.194-.941a1.493 1.493 0 0 0-.562-.668c-.252-.164-.574-.246-.967-.246-.334 0-.621.073-.861.22-.24.146-.437.351-.59.615a3.348 3.348 0 0 0-.333.932 5.92 5.92 0 0 0-.105 1.16v.351c0 .381.052.733.158 1.055.111.322.266.601.466.835.205.234.45.416.738.545.293.129.624.193.993.193.457 0 .882-.088 1.274-.263a2.757 2.757 0 0 0 1.029-.818l1.23 1.336a3.73 3.73 0 0 1-.817.826 4.36 4.36 0 0 1-1.23.651c-.481.164-1.029.246-1.644.246Z"/><path fill="#000" d="m45.363 100.45 2.46-1.59c.364-.24.607-.472.73-.695.123-.222.185-.471.185-.747 0-.275-.103-.53-.308-.765-.205-.24-.492-.36-.861-.36-.264 0-.487.062-.668.185-.182.117-.32.275-.413.474-.088.2-.132.422-.132.668 0 .264.07.533.21.809.141.27.332.556.572.861.24.3.507.624.8.976l6.038 7.031h-2.874l-4.922-5.695c-.416-.516-.78-.988-1.09-1.415a6.784 6.784 0 0 1-.73-1.266 3.183 3.183 0 0 1-.263-1.266c0-.668.143-1.25.43-1.749a2.953 2.953 0 0 1 1.213-1.169c.522-.28 1.134-.421 1.837-.421.663 0 1.237.137 1.723.413.486.27.861.627 1.125 1.072.27.445.404.934.404 1.468 0 .398-.073.767-.22 1.107a3.487 3.487 0 0 1-.606.932 5.759 5.759 0 0 1-.888.782l-2.803 1.995c-.217.199-.381.396-.492.589a2.051 2.051 0 0 0-.29 1.046c0 .34.073.644.22.914.146.27.35.48.615.633.263.152.57.228.922.228.48 0 .947-.105 1.398-.316a3.834 3.834 0 0 0 1.213-.905c.357-.399.641-.87.852-1.415.211-.545.317-1.146.317-1.802h2.144a8.78 8.78 0 0 1-.193 1.872 5.8 5.8 0 0 1-.624 1.635c-.287.498-.668.94-1.143 1.327a4.105 4.105 0 0 0-.15.132 2.13 2.13 0 0 1-.148.123 6.21 6.21 0 0 1-1.758 1.01c-.61.217-1.29.326-2.04.326-.855 0-1.596-.156-2.223-.466-.621-.311-1.102-.738-1.442-1.283-.333-.545-.5-1.169-.5-1.872 0-.516.1-.964.298-1.345.206-.387.487-.744.844-1.072.358-.329.768-.66 1.23-.994Zm21.137 3.498c0-.228-.035-.433-.105-.615a1.169 1.169 0 0 0-.37-.51 3.265 3.265 0 0 0-.764-.465 10.67 10.67 0 0 0-1.274-.475 15.88 15.88 0 0 1-1.653-.633 6.796 6.796 0 0 1-1.37-.817 3.69 3.69 0 0 1-.932-1.099c-.223-.416-.334-.9-.334-1.45a3 3 0 0 1 .351-1.45c.234-.44.563-.815.984-1.125.422-.317.92-.56 1.495-.73a6.766 6.766 0 0 1 1.907-.255c.943 0 1.766.17 2.47.51.703.34 1.248.806 1.634 1.398.393.591.59 1.268.59 2.03h-2.62c0-.375-.079-.703-.237-.984a1.605 1.605 0 0 0-.703-.677c-.31-.164-.704-.246-1.178-.246-.457 0-.838.07-1.143.21-.304.135-.533.32-.685.554a1.364 1.364 0 0 0-.229.774c0 .217.053.413.158.589.112.175.276.34.493.492.217.152.483.296.8.43.316.135.682.267 1.098.396.697.211 1.31.448 1.837.712a5.68 5.68 0 0 1 1.336.888c.357.328.627.7.809 1.116.181.416.272.888.272 1.415a3.33 3.33 0 0 1-.325 1.494c-.217.439-.53.812-.94 1.116-.41.305-.9.536-1.468.695a7.118 7.118 0 0 1-1.908.237 7.239 7.239 0 0 1-1.872-.246 5.685 5.685 0 0 1-1.678-.765 3.85 3.85 0 0 1-1.196-1.301c-.298-.527-.448-1.151-.448-1.872h2.646c0 .399.061.736.184 1.011.123.275.296.498.519.668.228.17.498.293.808.369.317.076.662.114 1.037.114.457 0 .832-.064 1.125-.193.3-.129.519-.308.66-.536.146-.229.22-.486.22-.774Zm8.649 3.525c-.739 0-1.4-.117-1.987-.352a4.356 4.356 0 0 1-1.494-.993 4.412 4.412 0 0 1-.931-1.468 4.94 4.94 0 0 1-.326-1.793v-.351c0-.721.103-1.38.308-1.978a4.65 4.65 0 0 1 .879-1.555c.387-.44.855-.777 1.406-1.011.551-.24 1.172-.36 1.864-.36.673 0 1.271.11 1.793.334.52.222.957.539 1.309.949.358.41.627.902.809 1.476.181.569.272 1.201.272 1.899v1.054h-7.558v-1.687h5.07v-.193c0-.352-.064-.665-.193-.941a1.493 1.493 0 0 0-.562-.668c-.252-.164-.574-.246-.967-.246-.334 0-.621.073-.861.22-.24.146-.437.351-.59.615a3.348 3.348 0 0 0-.333.932 5.92 5.92 0 0 0-.106 1.16v.351c0 .381.053.733.159 1.055.111.322.266.601.466.835.205.234.45.416.738.545.293.129.624.193.993.193.457 0 .882-.088 1.274-.263a2.757 2.757 0 0 0 1.029-.818l1.23 1.336a3.73 3.73 0 0 1-.817.826 4.36 4.36 0 0 1-1.23.651c-.481.164-1.029.246-1.644.246Zm9.72 0c-.738 0-1.4-.117-1.986-.352a4.356 4.356 0 0 1-1.494-.993 4.412 4.412 0 0 1-.932-1.468 4.94 4.94 0 0 1-.325-1.793v-.351c0-.721.103-1.38.308-1.978a4.65 4.65 0 0 1 .879-1.555c.386-.44.855-.777 1.406-1.011.55-.24 1.172-.36 1.863-.36.674 0 1.272.11 1.793.334.522.222.958.539 1.31.949.357.41.627.902.808 1.476.182.569.273 1.201.273 1.899v1.054h-7.559v-1.687h5.072v-.193c0-.352-.065-.665-.194-.941a1.493 1.493 0 0 0-.562-.668c-.252-.164-.575-.246-.967-.246-.334 0-.621.073-.861.22-.24.146-.437.351-.59.615a3.348 3.348 0 0 0-.333.932 5.92 5.92 0 0 0-.106 1.16v.351c0 .381.053.733.158 1.055.112.322.267.601.466.835.205.234.451.416.738.545.293.129.624.193.994.193.457 0 .881-.088 1.274-.263a2.757 2.757 0 0 0 1.028-.818l1.23 1.336c-.198.287-.47.563-.817.826a4.36 4.36 0 0 1-1.23.651c-.48.164-1.028.246-1.644.246Zm7.875-13.685v13.509h-2.53V93.788h2.53Zm5.995 4-4.131 4.71-2.215 2.241-.923-1.828 1.758-2.232 2.47-2.892h3.04Zm-2.628 9.509-2.813-4.394 1.75-1.53 3.98 5.924h-2.917Zm12.972-2.672 3.015-10.125h2.936l-4.457 12.797h-1.933l.439-2.672ZM106.306 94.5l3.006 10.125.457 2.672h-1.951l-4.43-12.797h2.918Zm14.906 8.236h-3.261v-2.057h3.261c.504 0 .914-.082 1.231-.246.316-.17.548-.404.694-.703a2.26 2.26 0 0 0 .22-1.011c0-.38-.073-.735-.22-1.063a1.774 1.774 0 0 0-.694-.791c-.317-.2-.727-.3-1.231-.3h-2.346v10.732h-2.637V94.5h4.983c1.002 0 1.861.182 2.575.545.721.358 1.272.853 1.653 1.486.381.632.571 1.356.571 2.17 0 .827-.19 1.541-.571 2.145-.381.603-.932 1.069-1.653 1.397-.714.328-1.573.493-2.575.493Zm17.033-8.236v12.797h-2.636l-5.142-8.578v8.578h-2.637V94.5h2.637l5.15 8.587V94.5h2.628Z"/><path fill="#4687FF" d="M79.73 7.35c2.632-.015 5.264.005 7.894-.062.998-.023 1.411.272 1.367 1.32-.067 1.558-.02 3.12-.02 4.68v57.606c0 1.944-.003 1.956-2.012 1.947-4.24-.02-8.477-.056-12.717-.085-.161-1.45-.026-2.85.343-4.281.395-1.543.374-3.162.23-4.773-.383-4.345-1.671-8.448-3.19-12.497.084-.55.517-.77.933-1.04 4.94-3.18 7.76-7.792 9.048-13.431.264-1.157.352-2.15-.77-3.107-1.215-1.037-1.97-2.527-2.565-4.035-1.145-2.896-2.017-5.883-2.846-8.884.31-.495.647-.975.922-1.488 1.992-3.713 2.92-7.724 3.382-11.87Z"/><path fill="#7E706F" d="M75.425 20.705c.829 2.998 1.701 5.985 2.846 8.884.594 1.505 1.353 2.998 2.565 4.035 1.122.957 1.037 1.95.77 3.107-1.291 5.64-4.11 10.251-9.048 13.431-.416.267-.849.49-.934 1.04-.126-.065-.287-.217-.372-.185-1.8.732-3.587 1.5-5.39 2.223-.572.228-.484.591-.425 1.057.164 1.303.398 2.612.383 3.918-.043 3.669-1.663 5.783-5.068 6.506-2.981.635-5.962.814-8.603-1.203.006-3.362.05-6.723-.006-10.085-.017-1.034.19-1.438 1.341-1.44 2.09-.004 4.182-.226 6.2-.864 4.708-1.49 6.737-4.955 5.75-9.827-.076-.381-.12-.767-.181-1.151.19-.047.38-.082.567-.138 4.627-1.361 7.643-4.33 8.457-9.112.753-4.433-.68-8.255-4.337-10.97-3.891-2.886-8.099-3.074-12.389-.84-1.677.873-3.455 1.304-5.32 1.435-.015-4.535-.009-9.071-.056-13.604-.008-.84.273-1.098 1.095-1.072 2.835.1 5.655.299 8.38 1.125.917.278 1.661.152 2.496-.258 4.193-2.064 8.406-4.093 12.626-6.102.544-.26 1.045-.75 1.745-.58-.14.7-.644 1.189-1.063 1.71-2.307 2.878-4.641 5.733-6.96 8.603-.316.392-.85.764-.255 1.347 2.583 2.512 3.903 5.754 5.186 9.01Z"/><path fill="#030202" d="M52.152 63.515c2.641 2.017 5.622 1.839 8.603 1.203 3.402-.723 5.025-2.837 5.068-6.506.015-1.306-.22-2.615-.383-3.918-.059-.466-.147-.829.425-1.057 1.803-.72 3.59-1.49 5.39-2.223.085-.035.246.117.372.185 1.52 4.05 2.808 8.152 3.192 12.497.143 1.614.164 3.23-.231 4.773-.37 1.435-.504 2.832-.343 4.281-.653 1.716-1.813 2.732-3.728 2.694-.36-.009-.647.144-.954.305-5.221 2.75-10.85 2.887-16.515 2.345-1.573-.15-3.072-1.042-4.624-1.549-1.42-.463-1.7-1.76-.828-3.262.395-.682.322-.987-.214-1.531-1.786-1.822-1.455-3.289.931-4.346.448-.199.668-.319.673-.896.027-2.746.504-3.165 3.166-2.995ZM52.24 20.526c1.868-.131 3.642-.562 5.32-1.434 4.29-2.235 8.5-2.047 12.39.84 3.656 2.714 5.088 6.536 4.336 10.969-.814 4.781-3.83 7.75-8.457 9.112-.187.056-.377.091-.568.138-1.86-4.498-4.928-7.736-9.648-9.244-.553-.176-1.145-.451-1.69-.399-1.715.167-1.795-.767-1.745-2.105.1-2.62.047-5.25.062-7.877Zm8.483 9.444c2.644-1.441 5.22-1.602 7.812-.325 1.06.52.764-.287.73-.726-.185-2.334-2.317-4.144-4.61-3.95-2.498.213-4.12 2.195-3.932 5Z"/><path fill="#050402" d="M75.425 20.705c-1.283-3.26-2.603-6.498-5.18-9.013-.594-.58-.062-.952.255-1.347 2.319-2.87 4.653-5.724 6.96-8.603.419-.521.922-1.007 1.063-1.71.887-.097.682.67.782 1.09.486 2.046.39 4.14.424 6.222-.462 4.146-1.39 8.16-3.379 11.87-.278.519-.615.996-.925 1.491Z"/><path fill="#0C0C0C" d="M52.193 36.877c0-.39-.105-.814.02-1.156.308-.84-.825-2.255.674-2.522 1.973-.351 3.806.888 4.134 2.425.469 2.187-1.961 5.227-4.187 5.288-.565.015-.647-.24-.644-.688.009-1.115.003-2.231.003-3.347Z"/><path fill="#070707" d="M57.917 48.587c-.126-.015-.424-.015-.7-.094-.796-.234-1.8-.489-2.02-1.247-.158-.554.855-.917 1.359-1.341 1.484-1.245 3.042-2.407 4.498-3.69.773-.682 1.018-.319 1.302.384 1.175 2.893-1.098 6.088-4.439 5.988Z"/><path fill="#F5F5F5" d="M60.723 29.97c-.188-2.805 1.434-4.788 3.935-5.002 2.29-.196 4.424 1.614 4.609 3.95.035.44.33 1.248-.73.727-2.594-1.277-5.17-1.119-7.814.325Z"/></svg>