<svg xmlns="http://www.w3.org/2000/svg" xmlns:xlink="http://www.w3.org/1999/xlink" fill="none">
<symbol id="gear" viewBox="0 0 24 24"><path fill="currentColor" d="M13.148.04c.428.07.832.233 1.195.523.595.476.878 1.076 1.097 1.952.056.224.153.486.275.74.278.117.55.249.815.393.262-.065.513-.15.714-.244 1.412-.658 2.597-.623 3.567.423.082.089.131.148.238.28l.629.776c.17.21.241.305.348.482.692 1.152.422 2.224-.452 3.386a4.11 4.11 0 0 0-.417.71c.078.283.143.57.195.86.223.178.46.334.668.441.805.41 1.325.822 1.655 1.508.202.42.27.85.24 1.282a3.48 3.48 0 0 1-.106.64l-.225.975c-.065.285-.099.41-.185.622a2.515 2.515 0 0 1-.778 1.047c-.598.473-1.246.614-2.148.63a4.07 4.07 0 0 0-.773.1c-.177.243-.364.478-.563.704.003.275.03.544.077.764.187.884.196 1.547-.13 2.236-.2.42-.491.744-.846.993a3.483 3.483 0 0 1-.564.32l-.899.44c-.263.127-.381.18-.6.247-.414.125-.85.156-1.303.054-.744-.167-1.261-.582-1.842-1.273a4.105 4.105 0 0 0-.591-.561 9.553 9.553 0 0 1-.878 0 4.11 4.11 0 0 0-.591.56c-.58.692-1.098 1.107-1.842 1.274a2.515 2.515 0 0 1-1.303-.054 3.483 3.483 0 0 1-.6-.248l-.899-.438a6.996 6.996 0 0 1-.185-.093c-1.312-.683-1.696-1.847-1.355-3.457.047-.22.074-.49.077-.764a9.559 9.559 0 0 1-.563-.705 4.07 4.07 0 0 0-.773-.099c-.902-.016-1.55-.157-2.148-.63a2.516 2.516 0 0 1-.778-1.047 3.482 3.482 0 0 1-.185-.622l-.225-.974a3.382 3.382 0 0 1-.109-.681 2.509 2.509 0 0 1 .296-1.346c.339-.629.84-1.015 1.602-1.404a4.09 4.09 0 0 0 .668-.441c.052-.29.117-.577.195-.86a4.112 4.112 0 0 0-.417-.71c-.874-1.162-1.144-2.234-.452-3.386.107-.177.179-.273.348-.482l.63-.777c.106-.131.155-.19.237-.279.97-1.046 2.155-1.08 3.567-.423.201.093.452.18.714.244.265-.144.537-.276.815-.394.122-.253.219-.515.275-.74.219-.875.502-1.475 1.097-1.95.363-.291.768-.455 1.195-.523.18-.03.3-.038.49-.04L12.5 0c.293 0 .422.005.648.04ZM12.586 2H11.5c-.5 0-.75 0-1 1a6.346 6.346 0 0 1-.836 1.87 7.47 7.47 0 0 0-1.8.872 6.35 6.35 0 0 1-1.952-.525c-.934-.435-1.092-.24-1.406.148l-.63.777c-.314.389-.472.583.148 1.406.35.464.721 1.15.937 1.857a7.458 7.458 0 0 0-.429 1.894 6.347 6.347 0 0 1-1.643 1.245c-.918.468-.862.712-.75 1.199l.225.974c.113.487.169.731 1.2.75.57.01 1.323.135 2.003.39.345.575.765 1.1 1.247 1.56a6.35 6.35 0 0 1-.072 2.032c-.213 1.008.011 1.118.46 1.337l.9.438c.449.22.674.33 1.337-.46a6.346 6.346 0 0 1 1.59-1.326 7.565 7.565 0 0 0 1.942 0 6.345 6.345 0 0 1 1.59 1.326c.663.79.888.68 1.337.46l.9-.438c.449-.219.673-.329.46-1.337a6.348 6.348 0 0 1-.072-2.031 7.535 7.535 0 0 0 1.247-1.56 6.347 6.347 0 0 1 2.003-.391c1.031-.019 1.087-.263 1.2-.75l.225-.974c.112-.487.168-.73-.75-1.2a6.348 6.348 0 0 1-1.643-1.244 7.458 7.458 0 0 0-.43-1.894 6.341 6.341 0 0 1 .938-1.857c.62-.823.462-1.017.148-1.406l-.63-.777c-.314-.389-.472-.583-1.406-.148a6.35 6.35 0 0 1-1.952.525 7.468 7.468 0 0 0-1.8-.871A6.348 6.348 0 0 1 13.5 3c-.235-.941-.47-.997-.914-1ZM12 7.5a4.5 4.5 0 1 1 0 9 4.5 4.5 0 0 1 0-9Zm0 2a2.5 2.5 0 1 0 0 5 2.5 2.5 0 0 0 0-5Z"/></symbol>
<symbol id="planet" viewBox="0 0 19 19"><path fill="currentColor" d="m14.309 1.891.091.059.078.051-.077-.051c.061.04.122.08.183.122l-.106-.07c.066.043.131.087.196.133l-.09-.063.186.131a8.902 8.902 0 0 1 1.11.95l-.067-.067c.049.048.097.096.144.145l-.076-.078.175.18-.099-.102c.055.056.11.114.163.172l-.064-.07.144.158-.08-.088c.052.056.104.114.155.172L16.2 3.49c.051.057.101.114.15.172l-.075-.088c.05.058.101.117.15.177l-.074-.09.149.18c.21.26.405.53.585.812l-.065-.1c.05.076.1.154.149.233l-.084-.133c.04.06.078.122.115.184l-.031-.051.095.158-.064-.107.127.215a8.934 8.934 0 0 1 .842 2.02l.047.176.065.27.022.1.05.255.046.276c.017.108.03.216.043.324l-.027-.216a9.058 9.058 0 0 1 .08.95l.005.292-.004.268a9.987 9.987 0 0 1-.053.751l.007-.06c-.01.097-.023.194-.036.29l.029-.23a8.97 8.97 0 0 1-.16.954l-.067.277-.047.178a8.93 8.93 0 0 1-.886 2.094l.042-.073a9.231 9.231 0 0 1-.108.185l.066-.112c-.04.07-.083.14-.125.209l.059-.097c-.04.067-.081.133-.123.198l.064-.101c-.045.072-.09.143-.137.214l.073-.113-.087.134.014-.021a9.405 9.405 0 0 1-.102.152l.088-.13a8.704 8.704 0 0 1-.189.272l.1-.142a9.044 9.044 0 0 1-.77.969l.048-.053a8.512 8.512 0 0 1-.16.174l.113-.121a8.775 8.775 0 0 1-.172.183l.059-.062a9.05 9.05 0 0 1-.147.151l.088-.089-.166.167.079-.078a9.147 9.147 0 0 1-1.005.874l.056-.042-.196.145.14-.102a8.922 8.922 0 0 1-.174.126l.034-.024a9.49 9.49 0 0 1-.174.121l.14-.097a8.678 8.678 0 0 1-.228.157l.088-.06a9.097 9.097 0 0 1-.146.099l.058-.04a9.006 9.006 0 0 1-1.07.611l.095-.046a9.089 9.089 0 0 1-.222.107l.127-.06a9.05 9.05 0 0 1-.194.091l.067-.03a9.135 9.135 0 0 1-.207.092l.14-.062c-.079.036-.157.07-.237.104l.097-.042a8.901 8.901 0 0 1-.238.1l.141-.058a8.676 8.676 0 0 1-.186.076l.045-.018c-.07.028-.142.055-.214.082l.168-.064a8.866 8.866 0 0 1-.244.092l.076-.028a8.822 8.822 0 0 1-.288.1v.001a9.01 9.01 0 0 1-.441.134l.094-.026-.201.055.107-.029a9.023 9.023 0 0 1-.234.061l.127-.032a8.81 8.81 0 0 1-.242.06l.115-.028a8.71 8.71 0 0 1-.211.05l.096-.022-.226.05.13-.028c-.087.019-.174.037-.262.053l.132-.026c-.073.015-.148.03-.222.043l.09-.017a8.765 8.765 0 0 1-.48.078l-.089.012-.216.024a9.105 9.105 0 0 1-2.506-.097l.108.02a9.056 9.056 0 0 1-.246-.045l.138.025a9.537 9.537 0 0 1-.652-.142l.054.014a9.073 9.073 0 0 1-.209-.055l.155.04a9.206 9.206 0 0 1-.798-.246l.21.074a9.016 9.016 0 0 1-.337-.12l.126.047a9.103 9.103 0 0 1-.212-.08l.086.034a9.033 9.033 0 0 1-.25-.1l.164.066a8.942 8.942 0 0 1-.21-.085l.046.02a8.524 8.524 0 0 1-.178-.076l.132.056a8.535 8.535 0 0 1-.214-.093l.082.037a9.092 9.092 0 0 1-.215-.097l.133.06a8.98 8.98 0 0 1-.208-.096l.075.036a8.58 8.58 0 0 1-1.104-.617l.126.08a9.31 9.31 0 0 1-.185-.12l.059.04a8.379 8.379 0 0 1-.158-.106l.1.067a9.12 9.12 0 0 1-.2-.136l.1.069a8.705 8.705 0 0 1-.196-.139l.096.07a8.77 8.77 0 0 1-.197-.143l.1.073a9.042 9.042 0 0 1-1.033-.874l.035.034a8.814 8.814 0 0 1-.112-.111l.078.077a9.223 9.223 0 0 1-.166-.167l.088.09a8.86 8.86 0 0 1-.147-.152l.059.062a8.78 8.78 0 0 1-.172-.183l.113.121a9.026 9.026 0 0 1-.783-.948l.038.052a8.914 8.914 0 0 1-.138-.194l.1.142a9.05 9.05 0 0 1-.188-.272l.088.13a8.83 8.83 0 0 1-.102-.152l.014.022a9.92 9.92 0 0 1-.087-.135l.073.113a8.942 8.942 0 0 1-.137-.214l.064.101a9.085 9.085 0 0 1-.123-.198l.06.097a8.836 8.836 0 0 1-.126-.208l.066.111a8.97 8.97 0 0 1-.471-.893l.046.1a8.933 8.933 0 0 1-.527-1.413l-.047-.178-.067-.276a8.33 8.33 0 0 1-.13-.724l.01.075a8.996 8.996 0 0 1-.04-.306l.03.23a9.076 9.076 0 0 1-.082-.964v.001L.5 9.5l.005-.292a9.147 9.147 0 0 1 .053-.734l-.008.07c.01-.095.022-.19.035-.286l.016-.108.045-.276c.022-.12.046-.238.073-.355l.065-.27.047-.177c.116-.416.262-.82.434-1.209l-.016.036a8.948 8.948 0 0 1 .487-.954l-.063.108.127-.215-.064.107.095-.158-.031.051.115-.184-.084.133a9.032 9.032 0 0 1 .743-1.035l-.072.088.147-.177-.075.089c.05-.06.1-.119.151-.177l-.076.088.15-.172-.074.084.155-.173-.08.089a9.04 9.04 0 0 1 .144-.157l-.064.068c.054-.057.108-.115.163-.171l-.099.103c.058-.061.116-.122.176-.181l-.077.078.143-.145A9.056 9.056 0 0 1 4.32 2.14l-.089.063c.077-.055.154-.11.233-.162l-.144.099.173-.12-.03.02.179-.117-.149.098A8.995 8.995 0 0 1 5.57 1.4l-.063.03.192-.091-.128.06c.076-.036.152-.072.23-.107l-.102.047c.07-.033.142-.066.214-.097l-.113.05a8.945 8.945 0 0 1 .86-.336l-.115.04c.063-.023.126-.044.19-.064L6.66.957c.07-.024.142-.046.214-.068l-.14.044c.085-.028.17-.054.257-.079L6.875.89c.076-.023.152-.045.229-.066l-.112.031a8.93 8.93 0 0 1 .227-.062l-.115.03a8.94 8.94 0 0 1 .232-.06l-.117.03c.076-.02.152-.04.229-.057l-.112.027c.074-.018.148-.036.222-.052l-.11.025.221-.049-.11.024c.084-.019.17-.036.255-.052L7.67.686 7.9.642l-.085.016A8.994 8.994 0 0 1 8.288.58l.09-.012.216-.024A9.107 9.107 0 0 1 11.1.642l-.108-.02c.083.014.165.03.246.045L11.1.642l.197.037c.157.032.314.068.469.109l-.07-.019c.067.017.135.035.202.054l-.132-.035a9.353 9.353 0 0 1 .69.209l-.001-.001c.107.038.213.077.318.118l-.122-.047c.082.03.163.062.244.095l-.122-.048c.069.026.136.054.204.082l-.082-.034.191.08-.11-.046.224.097-.114-.05c.073.031.144.063.215.097l-.101-.047c.077.035.153.07.23.108L13.3 1.34a8.67 8.67 0 0 1 1.008.551ZM11.31 13.1H7.69c.387 1.533 1.014 2.902 1.81 4.023.798-1.121 1.425-2.49 1.812-4.024Zm-8.563 0a7.664 7.664 0 0 0 5.048 3.86 13.986 13.986 0 0 1-1.494-3.86H2.748Zm13.504 0h-3.553a13.997 13.997 0 0 1-1.494 3.859 7.66 7.66 0 0 0 5.047-3.859ZM6.054 7.25H2.186A7.649 7.649 0 0 0 1.85 9.5c0 .783.118 1.538.336 2.25h3.868a16.384 16.384 0 0 1 0-4.5Zm5.528 0H7.418c-.11.724-.168 1.476-.168 2.25 0 .773.058 1.526.167 2.25h4.165c.11-.724.168-1.477.168-2.25 0-.774-.058-1.526-.168-2.25Zm5.232 0h-3.868a16.377 16.377 0 0 1 0 4.5h3.868a7.65 7.65 0 0 0 .336-2.25 7.65 7.65 0 0 0-.336-2.25ZM7.794 2.04l-.132.031A7.666 7.666 0 0 0 2.749 5.9h3.553a13.996 13.996 0 0 1 1.493-3.858ZM9.5 1.877l-.033.047C8.686 3.036 8.071 4.388 7.689 5.9h3.622c-.387-1.534-1.014-2.902-1.811-4.023Zm1.704.164.049.084A14.039 14.039 0 0 1 12.698 5.9h3.553a7.664 7.664 0 0 0-5.047-3.86Z"/></symbol>
<symbol id="sliders" viewBox="0 0 17 13"><path fill="currentColor" d="M11.875 7.25c1.19 0 2.194.79 2.516 1.875H16a.75.75 0 0 1 0 1.5h-1.609a2.626 2.626 0 0 1-5.032 0H1a.75.75 0 0 1 0-1.5h8.359a2.626 2.626 0 0 1 2.516-1.875Zm0 1.313a1.312 1.312 0 1 0 0 2.624 1.312 1.312 0 0 0 0-2.624ZM5.875.5c1.19 0 2.194.79 2.516 1.875H16a.75.75 0 0 1 0 1.5H8.391a2.626 2.626 0 0 1-5.032 0H1a.75.75 0 0 1 0-1.5h2.359A2.626 2.626 0 0 1 5.875.5Zm0 1.313a1.313 1.313 0 1 0 0 2.625 1.313 1.313 0 0 0 0-2.625Z"/></symbol>
<symbol id="square-left-arrow" viewBox="0 0 17 17"><path fill="currentColor" d="M5.557.25C4.088.266 3.341.424 2.566.838A4.157 4.157 0 0 0 .841 2.563C.426 3.338.268 4.086.253 5.554v5.889c.015 1.469.173 2.216.588 2.991a4.157 4.157 0 0 0 1.725 1.725c.775.415 1.522.573 2.991.588h5.889c1.468-.015 2.216-.173 2.99-.588a4.158 4.158 0 0 0 1.726-1.725c.414-.775.573-1.522.588-2.991V5.554c-.015-1.468-.174-2.216-.588-2.99A4.158 4.158 0 0 0 14.437.837C13.662.424 12.914.266 11.446.25H5.557Zm.252 1.499h5.385l.418.003c1.11.021 1.606.136 2.117.409.48.257.853.63 1.11 1.11.273.51.388 1.008.409 2.117l.003.418v5.385l-.003.418c-.021 1.11-.136 1.607-.409 2.118-.257.48-.63.853-1.11 1.11-.51.273-1.007.387-2.117.408l-.418.004H5.809l-.418-.004c-1.11-.021-1.607-.135-2.118-.409a2.658 2.658 0 0 1-1.11-1.11c-.273-.51-.387-1.007-.408-2.117l-.004-.418V5.806l.004-.418c.021-1.11.135-1.606.409-2.117.256-.48.629-.853 1.11-1.11.51-.273 1.007-.388 2.117-.409l.418-.003Zm2.43 3.557a.75.75 0 0 0-1.058.08L4.93 8.013a.684.684 0 0 0-.088.126.751.751 0 0 0 .082.844l.006.006 2.25 2.625a.75.75 0 1 0 1.138-.976L7.131 9.25H11.5a.75.75 0 0 0 0-1.5H7.131L8.32 6.363a.75.75 0 0 0-.013-.992l-.068-.065Z"/></symbol>
<symbol id="square-plus" viewBox="0 0 17 17"><path fill="currentColor" d="M11.443.25c1.469.016 2.216.174 2.991.588a4.157 4.157 0 0 1 1.725 1.725c.415.775.573 1.523.588 2.991v5.889c-.015 1.469-.173 2.216-.588 2.991a4.157 4.157 0 0 1-1.725 1.725c-.775.415-1.522.573-2.991.588H5.554c-1.468-.015-2.216-.173-2.99-.588a4.157 4.157 0 0 1-1.726-1.725c-.414-.775-.572-1.522-.588-2.991V5.554c.016-1.468.174-2.216.588-2.99A4.157 4.157 0 0 1 2.563.837C3.338.424 4.086.266 5.554.25h5.889Zm-.252 1.499H5.806l-.418.003c-1.11.021-1.606.136-2.117.409-.48.257-.853.63-1.11 1.11-.273.51-.388 1.008-.409 2.117l-.003.418v5.385l.003.418c.021 1.11.136 1.607.409 2.118.257.48.63.853 1.11 1.11.51.273 1.008.387 2.117.408l.418.004h5.385l.418-.004c1.11-.021 1.607-.135 2.118-.409.48-.256.853-.629 1.11-1.11.273-.51.387-1.007.408-2.117l.004-.418V5.806l-.004-.418c-.021-1.11-.135-1.606-.409-2.117a2.658 2.658 0 0 0-1.11-1.11c-.51-.273-1.007-.388-2.117-.409l-.418-.003ZM8.5 4.75a.75.75 0 0 1 .75.75v2.25h2.25a.75.75 0 0 1 0 1.5H9.25v2.25a.75.75 0 0 1-1.5 0V9.25H5.5a.75.75 0 0 1 0-1.5h2.25V5.5a.75.75 0 0 1 .75-.75Z"/></symbol>
<symbol id="box-archive" viewBox="0 0 17 15"><path fill="currentColor" d="M14.125 0a2.625 2.625 0 0 1 2.625 2.625v1.5c0 .621-.504 1.125-1.125 1.125h-.375V12a3 3 0 0 1-3 3h-7.5a3 3 0 0 1-3-3V5.25h-.375A1.125 1.125 0 0 1 .25 4.125v-1.5A2.625 2.625 0 0 1 2.875 0h11.25Zm-.375 5.25H3.25V12a1.5 1.5 0 0 0 1.5 1.5h7.5a1.5 1.5 0 0 0 1.5-1.5V5.25Zm-3 1.875a.75.75 0 0 1 0 1.5h-4.5a.75.75 0 0 1 0-1.5h4.5ZM14.125 1.5H2.875c-.621 0-1.125.504-1.125 1.125V3.75h13.5V2.625c0-.621-.504-1.125-1.125-1.125Z"/></symbol>
<symbol id="arrow-right-rotate" viewBox="0 0 15 18"><path fill="currentColor" d="M6.22.97a.75.75 0 0 1 1.06 0l2.25 2.25a.75.75 0 0 1 0 1.06L7.28 6.53a.75.75 0 0 1-1.06-1.06l.96-.962a6 6 0 1 0 4.795 1.995.75.75 0 1 1 1.118-1 7.5 7.5 0 1 1-5.898-2.497L6.22 2.03a.75.75 0 0 1 0-1.06Z"/></symbol>
<symbol id="check-square" viewBox="0 0 17 17"><path fill="#32BC42" d="M11.443.25c1.469.016 2.216.174 2.991.588a4.157 4.157 0 0 1 1.725 1.725c.415.775.573 1.523.588 2.991v5.889c-.015 1.469-.173 2.216-.588 2.991a4.157 4.157 0 0 1-1.725 1.725c-.775.415-1.522.573-2.991.588H5.554c-1.468-.015-2.216-.173-2.99-.588a4.157 4.157 0 0 1-1.726-1.725c-.414-.775-.572-1.522-.588-2.991V5.554c.016-1.468.174-2.216.588-2.99A4.157 4.157 0 0 1 2.563.837C3.338.424 4.086.266 5.554.25h5.889Zm-.252 1.499H5.806l-.418.003c-1.11.021-1.606.136-2.117.409-.48.257-.853.63-1.11 1.11-.273.51-.388 1.008-.409 2.117l-.003.418v5.385l.003.418c.021 1.11.136 1.607.409 2.118.257.48.63.853 1.11 1.11.51.273 1.008.387 2.117.408l.418.004h5.385l.418-.004c1.11-.021 1.607-.135 2.118-.409.48-.256.853-.629 1.11-1.11.273-.51.387-1.007.408-2.117l.004-.418V5.806l-.004-.418c-.021-1.11-.135-1.606-.409-2.117a2.658 2.658 0 0 0-1.11-1.11c-.51-.273-1.007-.388-2.117-.409l-.418-.003Zm.041 4.27a.75.75 0 1 1 1.06 1.061l-4.2 4.2a.75.75 0 0 1-1.06 0l-1.95-1.95a.75.75 0 0 1 1.06-1.06l1.42 1.42 3.67-3.67Z"/></symbol>
<symbol id="square-xmark" viewBox="0 0 448 512"><path fill="#ff0000" d="M64 32C28.7 32 0 60.7 0 96v320c0 35.3 28.7 64 64 64h320c35.3 0 64-28.7 64-64V96c0-35.3-28.7-64-64-64H64zm79 143c9.4-9.4 24.6-9.4 33.9 0l47 47 47-47c9.4-9.4 24.6-9.4 33.9 0s9.4 24.6 0 33.9l-47 47 47 47c9.4 9.4 9.4 24.6 0 33.9s-24.6 9.4-33.9 0l-47-47-47 47c-9.4 9.4-24.6 9.4-33.9 0s-9.4-24.6 0-33.9l47-47-47-47c-9.4-9.4-9.4-24.6 0-33.9z"/></symbol>
<symbol id="arrow-left" viewBox="0 0 18 16"><path fill="currentColor" d="M7.293.293a1 1 0 0 1 1.414 1.414L3.414 7H17a1 1 0 0 1 .993.883L18 8a1 1 0 0 1-1 1H3.414l5.293 5.293a1 1 0 0 1 .083 1.32l-.083.094a1 1 0 0 1-1.414 0l-7-7-.073-.082a1.096 1.096 0 0 1-.126-.202.961.961 0 0 1-.083-.275A.997.997 0 0 1 0 8l.004.09A1.006 1.006 0 0 1 0 8.02V8a1.02 1.02 0 0 1 .125-.484.885.885 0 0 1 .071-.111.999.999 0 0 1 .097-.112l-.08.09c.025-.031.051-.062.08-.09l7-7Z"/></symbol>
<symbol id="download-speed" viewBox="0 0 32 31"><circle cx="16" cy="15.5" r="15.5" fill="#FE7B1C"/><path fill="#fff" fill-rule="evenodd" d="m22.85 16.478-6.165 6.165a.969.969 0 0 1-1.37 0L9.15 16.478a.969.969 0 0 1 1.37-1.37l4.511 4.512V9.042h1.938V19.62l4.511-4.512a.969.969 0 1 1 1.37 1.37Z" clip-rule="evenodd"/></symbol>
<symbol id="upload-speed" viewBox="0 0 32 31"><circle cx="15.5" cy="15.5" r="15.5" fill="#7F21FB" transform="matrix(1 0 0 -1 .5 31)"/><path fill="#fff" fill-rule="evenodd" d="m22.85 14.522-6.165-6.165a.969.969 0 0 0-1.37 0L9.15 14.522a.969.969 0 0 0 1.37 1.37l4.511-4.512v10.578h1.938V11.38l4.511 4.512a.969.969 0 1 0 1.37-1.37Z" clip-rule="evenodd"/></symbol>


</svg>
